<?xml version="1.0" standalone="no"?>
<!DOCTYPE svg PUBLIC "-//W3C//DTD SVG 20010904//EN"
 "http://www.w3.org/TR/2001/REC-SVG-20010904/DTD/svg10.dtd">
<svg version="1.0" xmlns="http://www.w3.org/2000/svg"
 width="512.000000pt" height="512.000000pt" viewBox="0 0 512.000000 512.000000"
 preserveAspectRatio="xMidYMid meet">
<metadata>
Created by potrace 1.16, written by Peter Selinger 2001-2019
</metadata>
<g transform="translate(0.000000,512.000000) scale(0.100000,-0.100000)"
fill="#f44336" stroke="none">
<path d="M511 5090 c-88 -32 -140 -72 -292 -227 -186 -189 -212 -235 -217
-389 -5 -111 8 -169 55 -254 16 -29 322 -342 837 -857 l811 -813 -816 -817
c-773 -774 -818 -822 -850 -888 -29 -62 -34 -82 -37 -170 -7 -185 30 -257 249
-471 107 -105 159 -148 204 -170 58 -28 65 -29 205 -29 140 0 147 1 205 29 52
26 164 134 877 845 l818 816 818 -816 c720 -720 824 -820 877 -845 56 -27 70
-29 197 -32 137 -3 137 -3 205 29 56 26 94 58 216 178 218 214 251 277 245
461 -3 94 -7 112 -37 175 -32 66 -77 114 -850 887 l-816 818 816 817 c955 956
884 870 884 1083 0 122 -1 127 -34 195 -28 59 -58 95 -195 231 -136 136 -172
167 -231 195 -68 33 -73 34 -195 34 -213 0 -127 71 -1082 -884 l-818 -816
-812 811 c-447 446 -829 821 -849 833 -107 63 -276 81 -388 41z"/>
</g>
</svg>
