<?xml version="1.0" standalone="no"?>
<!DOCTYPE svg PUBLIC "-//W3C//DTD SVG 20010904//EN"
 "http://www.w3.org/TR/2001/REC-SVG-20010904/DTD/svg10.dtd">
<svg version="1.0" xmlns="http://www.w3.org/2000/svg"
 width="512.000000pt" height="512.000000pt" viewBox="0 0 512.000000 512.000000"
 preserveAspectRatio="xMidYMid meet">
<metadata>
Created by potrace 1.16, written by Peter Selinger 2001-2019
</metadata>
<g transform="translate(0.000000,512.000000) scale(0.100000,-0.100000)"
fill="#50bd81" stroke="none">
<path d="M482 5105 c-30 -7 -92 -32 -140 -55 -123 -61 -214 -154 -275 -281
-25 -52 -51 -121 -57 -154 -8 -43 -10 -592 -8 -1950 3 -1761 5 -1894 21 -1947
108 -352 346 -592 684 -690 l78 -23 1775 0 1775 0 78 23 c332 96 575 337 679
674 l23 73 3 1375 2 1375 -319 -320 -320 -319 -3 -991 -3 -990 -23 -58 c-31
-76 -103 -148 -179 -179 l-58 -23 -1655 0 -1655 0 -58 23 c-76 31 -148 103
-179 179 l-23 58 -3 1788 -2 1787 1122 0 1123 0 320 320 320 320 -1495 -1
c-1183 -1 -1506 -3 -1548 -14z"/>
<path d="M4200 5105 c-36 -16 -2280 -2250 -2280 -2270 0 -6 204 -214 453 -463
l452 -452 1137 1137 c986 987 1138 1143 1147 1178 14 53 14 79 -3 118 -8 18
-176 194 -380 396 l-365 365 -63 3 c-42 2 -75 -2 -98 -12z"/>
<path d="M1504 1995 c-89 -355 -159 -645 -155 -645 19 1 1273 319 1279 324 6
6 -946 966 -958 966 -3 0 -78 -290 -166 -645z"/>
</g>
</svg>
